<?xml version="1.0" encoding="UTF-8" standalone="no"?>
<!-- Created with Inkscape (http://www.inkscape.org/) -->

<svg
   xmlns:dc="http://purl.org/dc/elements/1.1/"
   xmlns:cc="http://creativecommons.org/ns#"
   xmlns:rdf="http://www.w3.org/1999/02/22-rdf-syntax-ns#"
   xmlns:svg="http://www.w3.org/2000/svg"
   xmlns="http://www.w3.org/2000/svg"
   xmlns:sodipodi="http://sodipodi.sourceforge.net/DTD/sodipodi-0.dtd"
   xmlns:inkscape="http://www.inkscape.org/namespaces/inkscape"
   width="992.12598"
   height="744.09448"
   id="svg2"
   version="1.1"
   inkscape:version="0.48.4 r9939"
   sodipodi:docname="title.svg">
  <defs
     id="defs4" />
  <sodipodi:namedview
     id="base"
     pagecolor="#ffffff"
     bordercolor="#666666"
     borderopacity="1.0"
     inkscape:pageopacity="0.0"
     inkscape:pageshadow="2"
     inkscape:zoom="0.44141048"
     inkscape:cx="-315.59918"
     inkscape:cy="734.75612"
     inkscape:document-units="px"
     inkscape:current-layer="layer1"
     showgrid="false"
     fit-margin-top="0"
     fit-margin-left="0"
     fit-margin-right="0"
     fit-margin-bottom="0"
     inkscape:window-width="1920"
     inkscape:window-height="1056"
     inkscape:window-x="1024"
     inkscape:window-y="24"
     inkscape:window-maximized="1" />
  <metadata
     id="metadata7">
    <rdf:RDF>
      <cc:Work
         rdf:about="">
        <dc:format>image/svg+xml</dc:format>
        <dc:type
           rdf:resource="http://purl.org/dc/dcmitype/StillImage" />
        <dc:title></dc:title>
        <cc:license
           rdf:resource="http://creativecommons.org/licenses/by-sa/3.0/" />
      </cc:Work>
      <cc:License
         rdf:about="http://creativecommons.org/licenses/by-sa/3.0/">
        <cc:permits
           rdf:resource="http://creativecommons.org/ns#Reproduction" />
        <cc:permits
           rdf:resource="http://creativecommons.org/ns#Distribution" />
        <cc:requires
           rdf:resource="http://creativecommons.org/ns#Notice" />
        <cc:requires
           rdf:resource="http://creativecommons.org/ns#Attribution" />
        <cc:permits
           rdf:resource="http://creativecommons.org/ns#DerivativeWorks" />
        <cc:requires
           rdf:resource="http://creativecommons.org/ns#ShareAlike" />
      </cc:License>
    </rdf:RDF>
  </metadata>
  <g
     inkscape:label="Layer 1"
     inkscape:groupmode="layer"
     id="layer1"
     transform="translate(606.69059,-323.5188)">
    <g
       transform="translate(-486.42857,160)"
       id="layer1-6"
       inkscape:label="Layer 1">
      <rect
         y="163.5188"
         x="-120.26202"
         height="744.09448"
         width="992.12598"
         id="rect2985"
         style="fill:#e3e2db;fill-opacity:1;stroke:none" />
    </g>
    <text
       sodipodi:linespacing="125%"
       id="text3791"
       y="638.86292"
       x="-462.31509"
       style="font-size:64px;font-style:normal;font-weight:bold;line-height:125%;letter-spacing:0px;word-spacing:0px;fill:#008080;fill-opacity:1;stroke:none;font-family:Sans;-inkscape-font-specification:Sans Bold"
       xml:space="preserve"><tspan
         y="638.86292"
         x="-462.31509"
         id="tspan3793"
         sodipodi:role="line">CLOUD COMPUTING</tspan></text>
    <text
       xml:space="preserve"
       style="font-size:40px;font-style:normal;font-variant:normal;font-weight:normal;font-stretch:normal;line-height:125%;letter-spacing:0px;word-spacing:0px;fill:#000000;fill-opacity:1;stroke:none;font-family:Linux Libertine Display;-inkscape-font-specification:Linux Libertine Display"
       x="-325.07095"
       y="696.07703"
       id="text5584"
       sodipodi:linespacing="125%"><tspan
         sodipodi:role="line"
         id="tspan5586"
         x="-325.07095"
         y="696.07703">FSFTN Summer Workshop</tspan></text>
    <text
       sodipodi:linespacing="125%"
       id="text5588"
       y="749.01489"
       x="-331.95572"
       style="font-size:40px;font-style:normal;font-variant:normal;font-weight:normal;font-stretch:normal;line-height:125%;letter-spacing:0px;word-spacing:0px;fill:#000000;fill-opacity:1;stroke:none;font-family:Linux Libertine Display;-inkscape-font-specification:Linux Libertine Display"
       xml:space="preserve"><tspan
         y="749.01489"
         x="-331.95572"
         id="tspan5590"
         sodipodi:role="line">IIT - Madras | June 18, 2014</tspan></text>
    <text
       xml:space="preserve"
       style="font-size:40px;font-style:normal;font-variant:normal;font-weight:normal;font-stretch:normal;line-height:125%;letter-spacing:0px;word-spacing:0px;fill:#000000;fill-opacity:1;stroke:none;font-family:Linux Libertine Display;-inkscape-font-specification:Linux Libertine Display"
       x="-227.46355"
       y="801.38635"
       id="text5592"
       sodipodi:linespacing="125%"><tspan
         sodipodi:role="line"
         id="tspan5594"
         x="-227.46355"
         y="801.38635">http://fsftn.org</tspan></text>
    <g
       id="g6104"
       transform="matrix(0.5224681,0,0,0.5224681,-54.642219,489.2506)">
      <path
         id="rect5083-4-8-4"
         d="m -200.26014,969.81856 186.20915,0 c 2.9815,0 5.3817,2.69296 5.3817,6.03801 l 0,78.89663 c 0,3.345 -2.4002,6.038 -5.3817,6.038 l -186.20915,0 c -2.9815,0 -5.38177,-2.693 -5.38177,-6.038 l 0,-78.89663 c 0,-3.34505 2.40027,-6.03801 5.38177,-6.03801 z"
         style="fill:#008080;fill-opacity:1;fill-rule:evenodd;stroke:#dff3f2;stroke-width:5.79433775;stroke-linecap:round;stroke-linejoin:round;stroke-miterlimit:4;stroke-opacity:1;stroke-dasharray:none;stroke-dashoffset:0"
         inkscape:connector-curvature="0" />
      <path
         id="rect5083-3-5-5-0"
         d="m -205.54881,1034.1256 197.14552,0 0,25.7985 -197.14552,0 z"
         style="fill:#dff3f2;fill-opacity:1;fill-rule:evenodd;stroke:none"
         inkscape:connector-curvature="0" />
      <g
         transform="matrix(0.35909935,0,0,0.35909935,-241.81784,821.69211)"
         id="g6896-5-5-8">
        <path
           inkscape:connector-curvature="0"
           style="fill:#ffffff;fill-opacity:1;fill-rule:evenodd;stroke:#3e5287;stroke-width:15.31194019;stroke-linecap:round;stroke-linejoin:round;stroke-miterlimit:4;stroke-opacity:1"
           d="m 325.66137,535.86218 c 0,57.25059 -46.41078,103.66137 -103.66137,103.66137 -57.25058,0 -103.66136,-46.41078 -103.66136,-103.66137 0,-57.2506 46.41078,-103.66137 103.66136,-103.66137 57.25059,0 103.66137,46.41077 103.66137,103.66137 z"
           id="path5722-0-2-3" />
        <g
           transform="matrix(1.7869285,0,0,1.7869285,-319.1192,701.29256)"
           style="font-size:40px;font-style:normal;font-variant:normal;font-weight:normal;font-stretch:normal;line-height:125%;letter-spacing:0px;word-spacing:0px;fill:#3e5287;fill-opacity:1;stroke:none;font-family:Pothana2000;-inkscape-font-specification:Pothana2000"
           id="flowRoot5799-5-1-1-4-1">
          <path
             inkscape:connector-curvature="0"
             d="m 301.808,-85.546586 c -1.48805,7.824009 -5.25604,13.344004 -11.304,16.56 -3.21603,1.727999 -6.88803,2.591998 -11.016,2.592 -4.51202,-2e-6 -8.59202,-0.984001 -12.24,-2.952 -3.60001,-1.967997 -6.45601,-4.943994 -8.568,-8.928 -2.064,-3.983986 -3.096,-8.927981 -3.096,-14.832 0,-4.70397 0.672,-8.903964 2.016,-12.600004 2.35199,-6.57595 6.43199,-11.06395 12.24,-13.464 3.02398,-1.19994 6.28798,-1.79994 9.792,-1.8 4.12797,6e-5 7.82397,0.81606 11.088,2.448 6.67196,3.26405 10.36795,8.59205 11.088,15.984 l -10.872,0 c -0.72004,-2.92796 -2.13603,-5.18396 -4.248,-6.768 -2.06403,-1.58395 -4.36803,-2.37595 -6.912,-2.376 -4.12802,5e-5 -7.36802,1.65605 -9.72,4.968 -2.35201,3.31204 -3.52801,7.656035 -3.528,13.032004 -1e-5,4.656021 0.91199,8.592017 2.736,11.808 2.20798,4.03201 5.49598,6.048008 9.864,6.048 6.43197,8e-6 10.36796,-3.239989 11.808,-9.72 l 10.872,0"
             style="font-size:72px;font-weight:bold;fill:#3e5287;font-family:Coolvetica;-inkscape-font-specification:Coolvetica Bold"
             id="path6834-8-8-6" />
          <path
             inkscape:connector-curvature="0"
             d="m 349.6205,-85.546586 c -1.48805,7.824009 -5.25604,13.344004 -11.304,16.56 -3.21603,1.727999 -6.88803,2.591998 -11.016,2.592 -4.51202,-2e-6 -8.59202,-0.984001 -12.24,-2.952 -3.60001,-1.967997 -6.45601,-4.943994 -8.568,-8.928 -2.064,-3.983986 -3.096,-8.927981 -3.096,-14.832 0,-4.70397 0.672,-8.903964 2.016,-12.600004 2.35199,-6.57595 6.43199,-11.06395 12.24,-13.464 3.02398,-1.19994 6.28798,-1.79994 9.792,-1.8 4.12797,6e-5 7.82397,0.81606 11.088,2.448 6.67196,3.26405 10.36795,8.59205 11.088,15.984 l -10.872,0 c -0.72004,-2.92796 -2.13603,-5.18396 -4.248,-6.768 -2.06403,-1.58395 -4.36803,-2.37595 -6.912,-2.376 -4.12802,5e-5 -7.36802,1.65605 -9.72,4.968 -2.35201,3.31204 -3.52801,7.656035 -3.528,13.032004 -1e-5,4.656021 0.91199,8.592017 2.736,11.808 2.20798,4.03201 5.49598,6.048008 9.864,6.048 6.43197,8e-6 10.36796,-3.239989 11.808,-9.72 l 10.872,0"
             style="font-size:72px;font-weight:bold;fill:#3e5287;font-family:Coolvetica;-inkscape-font-specification:Coolvetica Bold"
             id="path6836-0-9-6" />
        </g>
      </g>
      <g
         id="flowRoot5799-5-2-14-5-3"
         style="font-size:40px;font-style:normal;font-variant:normal;font-weight:normal;font-stretch:normal;line-height:125%;letter-spacing:0px;word-spacing:0px;fill:#3e5287;fill-opacity:1;stroke:none;font-family:Pothana2000;-inkscape-font-specification:Pothana2000"
         transform="matrix(0.35909935,0,0,0.35909935,-200.87797,1081.9505)">
        <path
           id="path6839-3-1-9"
           style="font-size:72px;font-weight:bold;fill:#3e5287;font-family:Coolvetica;-inkscape-font-specification:Coolvetica Bold"
           d="m 286.472,-89.002586 c -1.58403,-1.055978 -3.38403,-1.583978 -5.4,-1.584 l -13.896,0 0,13.896 13.752,0 c 2.49597,8e-6 4.48797,-0.791991 5.976,-2.376 1.34397,-1.391988 2.01597,-3.071986 2.016,-5.04 -3e-5,-2.207982 -0.81603,-3.83998 -2.448,-4.896 m 0.936,-15.984004 c -3e-5,-2.25596 -0.79203,-3.81596 -2.376,-4.68 -1.15203,-0.62395 -2.92803,-0.93595 -5.328,-0.936 l -12.528,0 0,11.232004 13.176,0 c 2.01597,3.1e-5 3.64797,-0.431968 4.896,-1.296004 1.43997,-0.95996 2.15997,-2.39996 2.16,-4.32 m 6.408,33.624004 c -3.16804,2.352001 -7.75203,3.528 -13.752,3.528 l -23.328,0 0,-51.768004 25.488,0 c 3.21597,6e-5 5.99997,0.55205 8.352,1.656 2.20796,1.05605 3.95996,2.76005 5.256,5.112 1.34396,2.35205 2.01596,4.82404 2.016,7.416 -4e-5,4.89604 -2.11204,8.136033 -6.336,9.720004 2.59196,0.912026 4.58396,2.568025 5.976,4.968 1.29596,2.16002 1.94395,4.656018 1.944,7.488 -5e-5,5.18401 -1.87204,9.144006 -5.616,11.88"
           inkscape:connector-curvature="0" />
        <path
           id="path6841-37-5-9"
           style="font-size:72px;font-weight:bold;fill:#3e5287;font-family:Coolvetica;-inkscape-font-specification:Coolvetica Bold"
           d="m 346.21512,-119.60259 -17.27999,32.328004 0,19.44 -10.8,0 0,-19.512 -17.856,-32.256004 12.59999,0 10.872,21.096004 10.08,-21.096004 12.384,0"
           inkscape:connector-curvature="0" />
      </g>
      <g
         id="flowRoot5799-5-2-1-7-5-6"
         style="font-size:40px;font-style:normal;font-variant:normal;font-weight:normal;font-stretch:normal;line-height:125%;letter-spacing:0px;word-spacing:0px;fill:#3e5287;fill-opacity:1;stroke:none;font-family:Pothana2000;-inkscape-font-specification:Pothana2000"
         transform="matrix(0.35909935,0,0,0.35909935,-147.67896,1081.9893)">
        <path
           id="path6844-1-3-6"
           style="font-size:72px;font-weight:bold;fill:#3e5287;font-family:Coolvetica;-inkscape-font-specification:Coolvetica Bold"
           d="m 298.712,-83.314586 c -4e-5,3.552011 -0.79204,6.504009 -2.376,8.856 -1.77604,2.544004 -4.27204,4.560002 -7.488,6.048 -3.02403,1.343999 -6.21603,2.015998 -9.576,2.016 -14.97601,-0.096 -22.656,-5.879996 -23.04,-17.352 l 10.44,0 c 0.096,2.784013 1.29599,4.944011 3.6,6.48 2.01598,1.392008 4.53598,2.088007 7.56,2.088 2.78397,7e-6 5.20797,-0.599993 7.272,-1.8 2.11197,-1.19999 3.16797,-2.783989 3.168,-4.752 0.048,-3.071983 -2.64003,-5.255981 -8.064,-6.552 -8.97602,-2.159978 -14.01601,-3.503977 -15.12,-4.032 -5.37601,-2.543973 -8.04,-6.863969 -7.992,-12.960004 0.048,-3.11996 0.84,-5.87995 2.376,-8.28 1.58399,-2.44795 3.95999,-4.34395 7.128,-5.688 3.02398,-1.29594 6.31198,-1.94394 9.864,-1.944 5.42397,6e-5 10.03197,1.36806 13.824,4.104 4.31996,3.07205 6.59996,7.34405 6.84,12.816 l -10.368,0 c -0.24003,-2.59196 -1.41603,-4.58396 -3.528,-5.976 -1.87203,-1.24795 -4.12803,-1.87195 -6.768,-1.872 -2.30402,5e-5 -4.34402,0.45605 -6.12,1.368 -2.16001,1.15205 -3.26401,2.78404 -3.312,4.896 -10e-6,2.92804 2.73598,5.04004 8.208,6.336004 9.21597,2.208029 14.30396,3.528028 15.264,3.96 5.47196,2.448025 8.20796,6.528021 8.208,12.24"
           inkscape:connector-curvature="0" />
        <path
           id="path6846-1-8-0"
           style="font-size:72px;font-weight:bold;fill:#3e5287;font-family:Coolvetica;-inkscape-font-specification:Coolvetica Bold"
           d="m 331.03325,-87.346586 -6.48,-20.592004 -0.144,0 -6.552,20.592004 13.176,0 m 18.144,19.512 -11.808,0 -3.24,-10.656 -19.08,0 -3.672,10.656 -11.376,0 18.36,-51.768004 12.528,0 18.288,51.768004"
           inkscape:connector-curvature="0" />
      </g>
      <g
         id="g7363-0-3"
         transform="translate(-811.26313,587.56863)">
        <path
           inkscape:connector-curvature="0"
           style="fill:#ffffff;fill-opacity:1;fill-rule:evenodd;stroke:#3e5287;stroke-width:5.49850702;stroke-linecap:round;stroke-linejoin:round;stroke-miterlimit:4;stroke-opacity:1"
           d="m 741.03954,415.06006 c 0,13.45559 -10.90792,24.36351 -24.36352,24.36351 -13.45559,0 -24.3635,-10.90792 -24.3635,-24.36351 0,-13.4556 10.90791,-24.36351 24.3635,-24.36351 13.4556,0 24.36352,10.90791 24.36352,24.36351 z"
           id="path5722-4-6-6-1" />
        <path
           inkscape:connector-curvature="0"
           style="fill:#3e5287;fill-opacity:1;fill-rule:evenodd;stroke:none"
           d="m 724.10279,406.53981 c 0,3.72321 -3.25176,6.74147 -7.263,6.74147 -4.01124,0 -7.263,-3.01826 -7.263,-6.74147 0,-3.72321 3.25176,-6.74147 7.263,-6.74147 4.01124,0 7.263,3.01826 7.263,6.74147 z"
           id="path6021-9-1-0" />
        <path
           inkscape:connector-curvature="0"
           style="fill:#3e5287;fill-opacity:1;fill-rule:evenodd;stroke:none"
           d="m 727.98765,428.11412 c 0,-8.99315 -4.85467,-16.28353 -10.84321,-16.28353 -5.94799,0 -10.78569,7.1956 -10.84271,16.12744 l 10.84271,0.15609 z"
           id="path6023-4-9-1" />
      </g>
      <g
         id="g7368-0-8"
         transform="translate(-811.26313,587.56863)">
        <path
           inkscape:connector-curvature="0"
           style="fill:#ffffff;fill-opacity:1;fill-rule:evenodd;stroke:#3e5287;stroke-width:5.49850702;stroke-linecap:round;stroke-linejoin:round;stroke-miterlimit:4;stroke-opacity:1"
           d="m 796.52039,414.88051 c 0,13.4556 -10.90792,24.36351 -24.36352,24.36351 -13.45559,0 -24.36351,-10.90791 -24.36351,-24.36351 0,-13.45559 10.90792,-24.36351 24.36351,-24.36351 13.4556,0 24.36352,10.90792 24.36352,24.36351 z"
           id="path5722-4-1-7-9-9" />
        <g
           transform="matrix(-0.53017424,0,0,0.53017424,920.45492,464.00996)"
           style="font-size:40px;font-style:normal;font-variant:normal;font-weight:normal;font-stretch:normal;line-height:125%;letter-spacing:0px;word-spacing:0px;fill:#3e5287;fill-opacity:1;stroke:none;font-family:Pothana2000;-inkscape-font-specification:Pothana2000"
           id="flowRoot5799-5-19-0-69-5-8">
          <path
             inkscape:connector-curvature="0"
             d="m 301.808,-85.546586 c -1.48805,7.824009 -5.25604,13.344004 -11.304,16.56 -3.21603,1.727999 -6.88803,2.591998 -11.016,2.592 -4.51202,-2e-6 -8.59202,-0.984001 -12.24,-2.952 -3.60001,-1.967997 -6.45601,-4.943994 -8.568,-8.928 -2.064,-3.983986 -3.096,-8.927981 -3.096,-14.832 0,-4.70397 0.672,-8.903964 2.016,-12.600004 2.35199,-6.57595 6.43199,-11.06395 12.24,-13.464 3.02398,-1.19994 6.28798,-1.79994 9.792,-1.8 4.12797,6e-5 7.82397,0.81606 11.088,2.448 6.67196,3.26405 10.36795,8.59205 11.088,15.984 l -10.872,0 c -0.72004,-2.92796 -2.13603,-5.18396 -4.248,-6.768 -2.06403,-1.58395 -4.36803,-2.37595 -6.912,-2.376 -4.12802,5e-5 -7.36802,1.65605 -9.72,4.968 -2.35201,3.31204 -3.52801,7.656035 -3.528,13.032004 -1e-5,4.656021 0.91199,8.592017 2.736,11.808 2.20798,4.03201 5.49598,6.048008 9.864,6.048 6.43197,8e-6 10.36796,-3.239989 11.808,-9.72 l 10.872,0"
             style="font-size:72px;font-weight:bold;fill:#3e5287;font-family:Coolvetica;-inkscape-font-specification:Coolvetica Bold"
             id="path6851-8-5-1" />
        </g>
        <path
           inkscape:connector-curvature="0"
           style="fill:#3e5287;fill-opacity:1;fill-rule:evenodd;stroke:none"
           inkscape:transform-center-x="2.9228357"
           inkscape:transform-center-y="12.232471"
           d="m 761.64458,415.16956 9.55749,-7.01382 -11.87142,-4.55036 z"
           id="path6056-20-29-6-9" />
      </g>
    </g>
  </g>
</svg>
